<svg xmlns="http://www.w3.org/2000/svg" version="1.1" xmlns:xlink="http://www.w3.org/1999/xlink" xmlns:svgjs="http://svgjs.dev/svgjs" width="1000" height="1000"><g clip-path="url(#SvgjsClipPath1010)"><rect width="1000" height="1000" fill="#ffffff"></rect><g transform="matrix(3.5,0,0,3.5,150,223.5)"><svg xmlns="http://www.w3.org/2000/svg" version="1.1" xmlns:xlink="http://www.w3.org/1999/xlink" xmlns:svgjs="http://svgjs.dev/svgjs" width="200" height="158"><svg width="200" height="158" viewBox="0 0 200 158" fill="none" xmlns="http://www.w3.org/2000/svg">
<path d="M40.644 115.275C38.114 115.275 35.8224 114.652 33.769 113.405C31.7524 112.158 30.1574 110.362 28.984 108.015C27.8107 105.632 27.224 102.827 27.224 99.6C27.224 94.0267 28.4157 88.875 30.799 84.145C33.1824 79.3783 36.7024 75.565 41.359 72.705C46.0157 69.8083 51.6074 68.36 58.134 68.36C59.8207 68.36 61.6174 68.4883 63.524 68.745C65.4674 69.0017 67.2274 69.3867 68.804 69.9C69.8307 70.1933 70.344 70.9267 70.344 72.1C70.344 73.0533 69.9774 73.9517 69.244 74.795C68.5474 75.6383 67.7224 76.06 66.769 76.06C66.4757 76.06 66.2557 76.0417 66.109 76.005C64.2024 75.565 62.5707 75.2533 61.214 75.07C59.8574 74.85 58.4274 74.74 56.924 74.74C52.2674 74.74 48.3074 75.8767 45.044 78.15C41.7807 80.3867 39.3424 83.3567 37.729 87.06C36.1157 90.7633 35.309 94.76 35.309 99.05C35.309 102.167 35.914 104.587 37.124 106.31C38.3707 107.997 39.984 108.84 41.964 108.84C44.2007 108.84 46.1624 107.923 47.849 106.09C49.5357 104.257 51.0757 101.287 52.469 97.18C53.8624 93.0733 55.2374 87.5 56.594 80.46C56.814 79.4333 57.254 78.7367 57.914 78.37C58.574 78.0033 59.454 77.82 60.554 77.82C63.1574 77.82 64.459 78.6633 64.459 80.35C64.459 80.6433 64.404 81.01 64.294 81.45C63.3407 85.0067 62.4607 88.9483 61.654 93.275C60.884 97.565 60.499 100.828 60.499 103.065C60.499 105.045 60.7924 106.493 61.379 107.41C61.9657 108.29 62.864 108.73 64.074 108.73C65.2474 108.73 66.3657 108.345 67.429 107.575C68.4924 106.768 69.8307 105.412 71.444 103.505C71.884 102.992 72.379 102.735 72.929 102.735C73.4057 102.735 73.7724 102.955 74.029 103.395C74.3224 103.835 74.469 104.44 74.469 105.21C74.469 106.64 74.1207 107.777 73.424 108.62C71.6274 110.783 69.8674 112.433 68.144 113.57C66.4207 114.707 64.3124 115.275 61.819 115.275C59.2524 115.275 57.1807 114.542 55.604 113.075C54.0274 111.572 53.0374 109.463 52.634 106.75C49.9207 112.433 45.924 115.275 40.644 115.275ZM100.051 102.735C100.528 102.735 100.895 102.955 101.151 103.395C101.445 103.835 101.591 104.44 101.591 105.21C101.591 106.677 101.243 107.813 100.546 108.62C98.9697 110.563 97.2463 112.158 95.3763 113.405C93.5063 114.652 91.3613 115.275 88.9413 115.275C81.4613 115.275 77.7213 110.013 77.7213 99.49C77.7213 97.8767 77.7763 96.245 77.8863 94.595H75.7413C74.6413 94.595 73.8897 94.3933 73.4863 93.99C73.1197 93.5867 72.9363 92.945 72.9363 92.065C72.9363 90.0117 73.7613 88.985 75.4113 88.985H78.5463C79.1697 84.9517 80.123 81.2667 81.4063 77.93C82.6897 74.5933 84.2297 71.935 86.0263 69.955C87.8597 67.975 89.8213 66.985 91.9113 66.985C93.4513 66.985 94.6613 67.6633 95.5413 69.02C96.4213 70.3767 96.8613 72.0817 96.8613 74.135C96.8613 79.8183 94.478 84.7683 89.7113 88.985H95.8713C96.458 88.985 96.8797 89.1133 97.1363 89.37C97.393 89.6267 97.5213 90.1033 97.5213 90.8C97.5213 93.33 95.4497 94.595 91.3063 94.595H84.5963C84.523 96.4283 84.4863 97.8583 84.4863 98.885C84.4863 102.698 84.9263 105.375 85.8063 106.915C86.723 108.455 88.153 109.225 90.0963 109.225C91.673 109.225 93.0663 108.748 94.2763 107.795C95.4863 106.842 96.9163 105.412 98.5663 103.505C99.0063 102.992 99.5013 102.735 100.051 102.735ZM90.4263 72.265C89.8763 72.265 89.253 72.9617 88.5563 74.355C87.8963 75.7117 87.2547 77.6183 86.6313 80.075C86.0447 82.495 85.5497 85.19 85.1463 88.16C87.3097 86.29 88.923 84.2 89.9863 81.89C91.0863 79.5433 91.6363 77.4167 91.6363 75.51C91.6363 73.3467 91.233 72.265 90.4263 72.265ZM123.458 102.735C123.935 102.735 124.301 102.955 124.558 103.395C124.851 103.835 124.998 104.44 124.998 105.21C124.998 106.677 124.65 107.813 123.953 108.62C122.376 110.563 120.653 112.158 118.783 113.405C116.95 114.652 114.86 115.275 112.513 115.275C109.286 115.275 106.885 113.808 105.308 110.875C103.768 107.942 102.998 104.147 102.998 99.49C102.998 95.0167 103.566 89.92 104.703 84.2C105.876 78.48 107.581 73.5667 109.818 69.46C112.091 65.3533 114.786 63.3 117.903 63.3C119.663 63.3 121.038 64.125 122.028 65.775C123.055 67.3883 123.568 69.7167 123.568 72.76C123.568 77.1233 122.358 82.1833 119.938 87.94C117.518 93.6967 114.236 99.3983 110.093 105.045C110.35 106.548 110.771 107.63 111.358 108.29C111.945 108.913 112.715 109.225 113.668 109.225C115.171 109.225 116.491 108.803 117.628 107.96C118.765 107.08 120.213 105.595 121.973 103.505C122.413 102.992 122.908 102.735 123.458 102.735ZM116.693 68.745C115.85 68.745 114.896 70.2667 113.833 73.31C112.77 76.3533 111.835 80.13 111.028 84.64C110.221 89.15 109.781 93.4767 109.708 97.62C112.311 93.33 114.383 89.04 115.923 84.75C117.463 80.4233 118.233 76.4817 118.233 72.925C118.233 70.1383 117.72 68.745 116.693 68.745ZM132.28 115.275C130.007 115.275 128.192 114.45 126.835 112.8C125.479 111.15 124.8 108.987 124.8 106.31C124.8 103.377 125.479 100.608 126.835 98.005C128.192 95.365 129.989 93.2567 132.225 91.68C134.499 90.0667 136.9 89.26 139.43 89.26C140.237 89.26 140.769 89.425 141.025 89.755C141.319 90.0483 141.557 90.5983 141.74 91.405C142.51 91.2583 143.317 91.185 144.16 91.185C145.957 91.185 146.855 91.8267 146.855 93.11C146.855 93.88 146.58 95.7133 146.03 98.61C145.187 102.827 144.765 105.76 144.765 107.41C144.765 107.96 144.894 108.4 145.15 108.73C145.444 109.06 145.81 109.225 146.25 109.225C146.947 109.225 147.79 108.785 148.78 107.905C149.77 106.988 151.109 105.522 152.795 103.505C153.235 102.992 153.73 102.735 154.28 102.735C154.757 102.735 155.124 102.955 155.38 103.395C155.674 103.835 155.82 104.44 155.82 105.21C155.82 106.677 155.472 107.813 154.775 108.62C153.272 110.49 151.677 112.067 149.99 113.35C148.304 114.633 146.672 115.275 145.095 115.275C143.885 115.275 142.767 114.872 141.74 114.065C140.75 113.222 139.999 112.085 139.485 110.655C137.579 113.735 135.177 115.275 132.28 115.275ZM134.26 109.72C135.067 109.72 135.837 109.243 136.57 108.29C137.304 107.337 137.835 106.072 138.165 104.495L140.2 94.375C138.66 94.4117 137.23 94.9983 135.91 96.135C134.627 97.235 133.6 98.7017 132.83 100.535C132.06 102.368 131.675 104.312 131.675 106.365C131.675 107.502 131.895 108.345 132.335 108.895C132.812 109.445 133.454 109.72 134.26 109.72ZM167.08 116.485C165.174 116.485 163.707 116.045 162.68 115.165C161.69 114.285 161.195 113.295 161.195 112.195C161.195 111.242 161.544 110.417 162.24 109.72C162.937 109.023 163.964 108.675 165.32 108.675C165.797 108.675 166.347 108.73 166.97 108.84C167.63 108.913 168.125 108.968 168.455 109.005C168.419 108.052 168.199 107.153 167.795 106.31C167.429 105.467 166.952 104.66 166.365 103.89C165.779 103.083 165.229 102.387 164.715 101.8C163.579 103.963 162.442 105.76 161.305 107.19C160.205 108.62 158.995 109.977 157.675 111.26C157.015 111.92 156.319 112.25 155.585 112.25C154.999 112.25 154.522 112.048 154.155 111.645C153.789 111.205 153.605 110.673 153.605 110.05C153.605 109.317 153.862 108.638 154.375 108.015L155.09 107.135C157.107 104.642 158.629 102.588 159.655 100.975C160.315 99.9117 160.975 98.6467 161.635 97.18C162.332 95.7133 163.23 93.715 164.33 91.185C165.027 89.5717 166.475 88.765 168.675 88.765C169.702 88.765 170.417 88.8567 170.82 89.04C171.224 89.2233 171.425 89.5167 171.425 89.92C171.425 90.14 171.352 90.4883 171.205 90.965C171.059 91.4417 170.857 91.9183 170.6 92.395C169.94 93.715 169.61 94.8333 169.61 95.75C169.61 96.3 169.794 96.905 170.16 97.565C170.564 98.225 171.169 99.05 171.975 100.04C173.149 101.58 174.029 102.9 174.615 104C175.239 105.063 175.55 106.237 175.55 107.52C175.55 109.06 175.184 110.527 174.45 111.92C173.754 113.277 172.764 114.377 171.48 115.22C170.197 116.063 168.73 116.485 167.08 116.485Z" fill="#052A75"></path>
<path d="M4 96.2592C4 127.78 29.7884 153.333 61.6 153.333H148C174.51 153.333 196 131.828 196 105.3C196 85.6032 184.153 67.4123 167.2 60C165.405 28.7734 139.296 4 107.353 4C82.4149 4 61.034 19.8546 52 41.3333C23.2 46 4 70.1344 4 96.2592Z" stroke="#052A75" stroke-width="7.68" stroke-linecap="round" stroke-linejoin="round"></path>
</svg></svg></g></g><defs><clipPath id="SvgjsClipPath1010"><rect width="1000" height="1000" x="0" y="0" rx="350" ry="350"></rect></clipPath></defs></svg>